<?xml version="1.0" encoding="UTF-8" standalone="no"?>
<svg
   xmlns:dc="http://purl.org/dc/elements/1.1/"
   xmlns:cc="http://creativecommons.org/ns#"
   xmlns:rdf="http://www.w3.org/1999/02/22-rdf-syntax-ns#"
   xmlns:svg="http://www.w3.org/2000/svg"
   xmlns="http://www.w3.org/2000/svg"
   xmlns:sodipodi="http://sodipodi.sourceforge.net/DTD/sodipodi-0.dtd"
   xmlns:inkscape="http://www.inkscape.org/namespaces/inkscape"
   width="11in"
   height="8.5in"
   viewBox="0 0 279.4 215.9"
   version="1.1"
   id="svg1681"
   inkscape:version="1.0 (4035a4fb49, 2020-05-01)"
   sodipodi:docname="main-logo.svg"
   inkscape:export-filename="\\klwnbc12lt02\users\darcy\Desktop\dBi-Logo-kenwood.png"
   inkscape:export-xdpi="22.09811"
   inkscape:export-ydpi="22.09811">
  <defs
     id="defs1675" />
  <sodipodi:namedview
     id="base"
     pagecolor="#ffffff"
     bordercolor="#666666"
     borderopacity="1.0"
     inkscape:pageopacity="0.0"
     inkscape:pageshadow="2"
     inkscape:zoom="0.93575259"
     inkscape:cx="674.96918"
     inkscape:cy="588.77589"
     inkscape:document-units="mm"
     inkscape:current-layer="g2760"
     inkscape:document-rotation="0"
     showgrid="true"
     showguides="true"
     inkscape:guide-bbox="true"
     inkscape:window-width="1920"
     inkscape:window-height="1027"
     inkscape:window-x="230"
     inkscape:window-y="2152"
     inkscape:window-maximized="1"
     units="in"
     inkscape:pagecheckerboard="false"
     inkscape:snap-midpoints="true">
    <sodipodi:guide
       position="-44.979167,139.17083"
       orientation="0,-1"
       id="guide2854" />
    <sodipodi:guide
       position="-52.916667,65.0875"
       orientation="0,-1"
       id="guide2856" />
    <sodipodi:guide
       position="-249.84654,55.129182"
       orientation="1,0"
       id="guide2858" />
    <inkscape:grid
       type="xygrid"
       id="grid2860" />
    <sodipodi:guide
       position="-84.666667,96.8375"
       orientation="1,0"
       id="guide2862" />
    <sodipodi:guide
       position="-121.70833,49.2125"
       orientation="1,0"
       id="guide2866" />
    <sodipodi:guide
       position="-156.10417,30.691667"
       orientation="1,0"
       id="guide2868" />
    <sodipodi:guide
       position="-193.14583,102.12917"
       orientation="0,-1"
       id="guide2872" />
    <sodipodi:guide
       position="-132.29167,57.15"
       orientation="1,0"
       id="guide2874" />
    <sodipodi:guide
       position="-111.125,46.566667"
       orientation="1,0"
       id="guide2876" />
    <sodipodi:guide
       position="-132.29167,91.545833"
       orientation="0,-1"
       id="guide2878" />
    <sodipodi:guide
       position="259.29167,115.35833"
       orientation="0,-1"
       id="guide2880" />
    <sodipodi:guide
       position="-116.41667,86.254167"
       orientation="0,-1"
       id="guide2882" />
    <sodipodi:guide
       position="141.55208,182.82708"
       orientation="0,-1"
       id="guide2937" />
  </sodipodi:namedview>
  <metadata
     id="metadata1678">
    <rdf:RDF>
      <cc:Work
         rdf:about="">
        <dc:format>image/svg+xml</dc:format>
        <dc:type
           rdf:resource="http://purl.org/dc/dcmitype/StillImage" />
        <dc:title></dc:title>
      </cc:Work>
    </rdf:RDF>
  </metadata>
  <g
     inkscape:label="Layer 1"
     inkscape:groupmode="layer"
     id="layer1">
    <g
       id="g2760"
       transform="matrix(8.6729277,0,0,8.6729277,1415.5201,-661.47146)">
      <g
         inkscape:export-ydpi="71.59388"
         inkscape:export-xdpi="71.59388"
         inkscape:export-filename="H:\src\dbitech\dbi-style-guide\src\assets\img\logo_772.png"
         transform="matrix(1.0009763,0,0,0.97678653,0.15904383,2.1726904)"
         id="g2419"
         style="fill:#0093b8;fill-opacity:1">
        <text
           xml:space="preserve"
           style="font-style:normal;font-weight:normal;font-size:20.2495px;line-height:1.25;font-family:sans-serif;letter-spacing:0px;word-spacing:0px;fill:#0093b8;fill-opacity:1;stroke:none;stroke-width:0.506238"
           x="-144.56236"
           y="99.663506"
           id="text2315"
           transform="scale(1.0648367,0.93911114)"><tspan
             sodipodi:role="line"
             id="tspan2313"
             x="-144.56236"
             y="99.663506"
             style="fill:#0093b8;fill-opacity:1;stroke-width:0.506238">B</tspan></text>
        <g
           aria-label="d"
           transform="matrix(1.1002847,0,0,0.90885569,-0.52916667,0)"
           id="text2315-0"
           style="font-style:normal;font-weight:normal;font-size:19.5972px;line-height:1.25;font-family:sans-serif;letter-spacing:0px;word-spacing:0px;fill:#0093b8;fill-opacity:1;stroke:none;stroke-width:0.489929">
          <path
             d="m -138.14436,102.98237 h -1.82941 l 0.0152,-1.45316 c -0.51672,0.44655 -1.05577,0.79422 -1.61715,1.04301 -0.56138,0.24879 -1.1706,0.37319 -1.82767,0.37319 -1.27586,0 -2.29017,-0.49121 -3.04292,-1.47362 -0.74638,-0.98241 -1.11957,-2.344389 -1.11957,-4.085937 0,-0.90586 0.12759,-1.712841 0.38276,-2.420943 0.26155,-0.708102 0.61241,-1.310946 1.05258,-1.808531 0.43379,-0.484827 0.93776,-0.854826 1.5119,-1.109997 0.58051,-0.255172 1.18017,-0.382758 1.79896,-0.382758 0.56138,0 1.05896,0.0606 1.49275,0.18181 0.43379,0.114827 0.88991,0.296637 1.36836,0.54543 v -4.63137 h 1.79897 z m -1.81419,-2.96506 v -6.133691 c -0.48483,-0.216896 -0.91862,-0.366809 -1.30137,-0.44974 -0.38276,-0.08293 -0.8006,-0.124397 -1.25353,-0.124397 -1.00793,0 -1.79259,0.350861 -2.35397,1.052584 -0.56137,0.701723 -0.84206,1.696893 -0.84206,2.985511 0,1.269481 0.2169,2.235945 0.65069,2.899393 0.43379,0.65707 1.12913,0.9856 2.08603,0.9856 0.51034,0 1.02706,-0.11164 1.55016,-0.33491 0.52311,-0.22966 1.01112,-0.52311 1.46405,-0.88035 z"
             style="fill:#0093b8;fill-opacity:1;stroke-width:0.489929"
             id="path2339"
             sodipodi:nodetypes="cccsscscccscccccccsssscscc" />
        </g>
      </g>
      <text
         inkscape:export-ydpi="71.59388"
         inkscape:export-xdpi="71.59388"
         inkscape:export-filename="H:\src\dbitech\dbi-style-guide\src\assets\img\logo_772.png"
         xml:space="preserve"
         style="font-style:normal;font-variant:normal;font-weight:normal;font-stretch:normal;font-size:4.66519px;line-height:1.25;font-family:sans-serif;-inkscape-font-specification:'sans-serif, Normal';font-variant-ligatures:normal;font-variant-caps:normal;font-variant-numeric:normal;font-variant-east-asian:normal;letter-spacing:0px;word-spacing:0px;fill:#ff501c;fill-opacity:1;stroke:none;stroke-width:2.24698;stroke-miterlimit:4;stroke-dasharray:none;image-rendering:crisp-edges;"
         x="-153.4944"
         y="103.43814"
         id="text2315-7"
         transform="scale(1.060466,0.94298166)"><tspan
           sodipodi:role="line"
           id="tspan2313-3"
           x="-153.4944"
           y="103.43814"
           style="font-style:normal;font-variant:normal;font-weight:normal;font-stretch:normal;font-size:4.66519px;font-family:sans-serif;-inkscape-font-specification:'sans-serif, Normal';font-variant-ligatures:normal;font-variant-caps:normal;font-variant-numeric:normal;font-variant-east-asian:normal;fill:#ff501c;fill-opacity:1;stroke-width:2.24698;stroke-miterlimit:4;stroke-dasharray:none;"><tspan
   id="tspan882"
   style="fill:#ff501c;fill-opacity:1;">Tech</tspan>nologies</tspan></text>
      <g
         inkscape:export-ydpi="71.59388"
         inkscape:export-xdpi="71.59388"
         inkscape:export-filename="H:\src\dbitech\dbi-style-guide\src\assets\img\logo_772.png"
         id="g880">
        <path
           id="tower"
           style="fill:#0093b8;fill-opacity:1;stroke:#0093b8;stroke-width:23.4105;stroke-linecap:round;stroke-linejoin:round;stroke-miterlimit:4;stroke-dasharray:none;stroke-opacity:1;paint-order:normal"
           d="M 882.63867 246.91211 A 28.488207 29.556866 0 0 0 854.15039 276.46875 A 28.488207 29.556866 0 0 0 880.38867 305.93359 C 871.13104 395.84096 829.3591 483.75793 748.18359 555.91406 L 1026.9141 555.91406 C 936.73096 483.76738 893.82101 395.86382 884.41211 305.96875 A 28.488207 29.556866 0 0 0 911.12695 276.46875 A 28.488207 29.556866 0 0 0 882.63867 246.91211 z "
           transform="matrix(0.03050681,0,0,0.03050681,-163.21133,76.268532)">
          <title
             id="title868">tower</title>
        </path>
        <path
           id="path2815-5"
           style="fill:none;fill-opacity:0.996078;stroke:#ff501c;stroke-width:0.632715;stroke-linecap:round;stroke-linejoin:round;stroke-miterlimit:10.7;stroke-dasharray:none;stroke-dashoffset:0;stroke-opacity:1;paint-order:normal"
           d="m -134.10018,88.42804 c 1.22858,-0.730957 2.05807,-2.064577 2.09078,-3.591405 0,-6.11e-4 0,-0.0012 0,-0.0019 0.0115,-0.02716 0.0174,-0.05628 0.0179,-0.08575 0,-0.03006 -0.006,-0.0598 -0.0179,-0.08752 -0.0495,-2.314702 -1.93031,-4.187067 -4.25674,-4.187067 v 2.8e-5 c -2.35745,0 -4.2728,1.91714 -4.2728,4.274596 0,1.550828 0.82887,2.910335 2.06721,3.659112"
           sodipodi:nodetypes="cccccccsc" />
        <path
           id="path2811-5"
           style="fill:none;fill-opacity:0.996078;stroke:#ff501c;stroke-width:0.714182;stroke-linecap:round;stroke-linejoin:round;stroke-miterlimit:10.7;stroke-dasharray:none;stroke-dashoffset:0;stroke-opacity:1;paint-order:normal"
           d="m -137.88135,86.912947 c -0.76576,-0.515241 -1.22496,-1.377699 -1.22496,-2.300662 0,-1.531466 1.24149,-2.772967 2.77296,-2.772966 1.20459,3e-6 2.2714,0.777701 2.63997,1.924527 0.36857,1.146816 -0.0454,2.400417 -1.02447,3.102202"
           sodipodi:nodetypes="csssc" />
      </g>
    </g>
  </g>
</svg>
